<?xml version="1.0" standalone="no"?>
<!DOCTYPE svg PUBLIC "-//W3C//DTD SVG 20010904//EN"
 "http://www.w3.org/TR/2001/REC-SVG-20010904/DTD/svg10.dtd">
<svg version="1.0" xmlns="http://www.w3.org/2000/svg"
 width="128.000000pt" height="128.000000pt" viewBox="0 0 128.000000 128.000000"
 preserveAspectRatio="xMidYMid meet">

<g transform="translate(0.000000,128.000000) scale(0.100000,-0.100000)"
fill="#000000" stroke="none">
<path d="M591 1266 c-27 -15 -50 -51 -51 -81 -1 -11 -19 -33 -43 -50 -59 -43
-87 -102 -87 -187 0 -99 38 -104 54 -7 4 26 17 52 37 71 28 29 33 30 82 23 61
-9 61 -9 109 1 67 12 128 -33 128 -95 0 -33 21 -70 36 -64 21 8 18 128 -5 179
-38 85 -137 132 -249 121 -42 -5 -52 -3 -43 6 14 14 137 16 164 3 23 -11 23
21 -1 50 -35 43 -86 55 -131 30z"/>
<path d="M822 663 c-7 -23 -29 -64 -49 -90 -43 -56 -52 -112 -33 -195 16 -71
60 -168 75 -168 7 0 15 20 19 50 4 27 13 67 20 88 27 77 29 143 7 233 -11 46
-22 93 -23 104 -2 13 -7 6 -16 -22z"/>
<path d="M460 493 c-16 -27 -30 -54 -30 -60 0 -16 73 -49 127 -57 42 -6 42 -6
33 19 -10 27 -5 51 18 78 13 15 13 17 0 17 -8 0 -29 11 -48 25 -49 36 -66 32
-100 -22z"/>
</g>
</svg>
